<svg xmlns="http://www.w3.org/2000/svg" width="56" height="46" viewBox="0 0 56 46"><g><g><path fill="#d8d3d0" d="M24.608 38.98c.752 4.716 3.014 7.072 6.788 7.072 3.77 0 5.843-2.165 6.223-6.506 0-1.13-.756-2.78-2.263-4.95-1.511-2.164-2.36-4.286-2.545-6.363 0-6.223 2.545-11.69 7.637-16.405C41.765 10.51 46.856 6.926 55.72 1.08c.186-.186.283-.376.283-.567 0-.375-.38-.565-1.131-.565C34.693 9 24.608 22.01 24.608 38.981zm-24.607 0c.751 4.716 3.014 7.072 6.788 7.072 3.77 0 5.843-2.165 6.223-6.506 0-1.13-.756-2.78-2.263-4.95-1.512-2.164-2.36-4.286-2.546-6.363 0-6.223 2.546-11.69 7.637-16.405 1.317-1.318 6.408-4.902 15.274-10.748.185-.186.282-.376.282-.567 0-.375-.38-.565-1.13-.565C10.085 9 0 22.01 0 38.981z"/></g></g></svg>